<?xml version="1.0" standalone="no"?>
<!DOCTYPE svg PUBLIC "-//W3C//DTD SVG 20010904//EN"
 "http://www.w3.org/TR/2001/REC-SVG-20010904/DTD/svg10.dtd">
<svg version="1.0" xmlns="http://www.w3.org/2000/svg"
 width="48px" height="48px" viewBox="0 0 305.000000 292.000000"
 preserveAspectRatio="xMidYMid meet">

<g transform="translate(0.000000,292.000000) scale(0.100000,-0.100000)"
fill="#0000FF" stroke="none">
<path d="M1400 2913 c-189 -19 -377 -74 -539 -158 -100 -52 -235 -145 -289
-199 l-24 -23 59 -7 c90 -11 296 -60 423 -101 299 -97 593 -254 815 -435 69
-57 85 -66 90 -52 13 34 18 339 6 455 -15 149 -32 233 -77 374 -25 79 -41 114
-54 118 -73 23 -304 39 -410 28z"/>
<path d="M1976 2693 c93 -281 131 -494 141 -783 6 -188 -5 -360 -32 -487 -16
-79 -15 -79 119 -12 138 69 204 110 316 193 96 71 283 248 315 299 16 25 16
30 0 80 -43 135 -162 336 -270 457 -124 138 -264 246 -424 326 -77 38 -191 84
-211 84 -3 0 17 -71 46 -157z"/>
<path d="M430 2410 c-140 -170 -246 -388 -295 -610 -22 -100 -31 -361 -16
-473 19 -143 16 -142 99 -44 162 192 366 373 587 521 118 79 386 215 485 247
39 13 70 26 70 30 0 11 -67 61 -160 119 -184 116 -438 218 -629 254 -46 9 -85
16 -87 16 -2 0 -26 -27 -54 -60z"/>
<path d="M2831 1775 c-65 -86 -224 -248 -346 -353 -200 -172 -505 -355 -737
-442 -72 -27 -86 -36 -76 -47 40 -48 309 -203 463 -266 120 -49 329 -106 392
-107 16 0 40 23 86 83 205 265 297 532 297 863 0 145 -13 282 -29 312 -5 9
-21 -4 -50 -43z"/>
<path d="M875 1644 c-97 -42 -263 -139 -365 -215 -95 -71 -254 -220 -312 -292
l-30 -38 22 -62 c139 -384 459 -704 838 -841 39 -14 72 -23 72 -20 0 4 -18 54
-39 113 -51 139 -105 357 -133 534 -37 241 -29 637 18 821 8 32 4 32 -71 0z"/>
<path d="M1086 1068 c-14 -70 -18 -279 -7 -401 13 -155 42 -300 85 -427 l32
-95 54 -14 c88 -22 423 -21 530 2 175 38 348 107 485 195 77 49 209 152 203
158 -3 2 -65 15 -139 29 -423 78 -863 278 -1157 525 -40 33 -74 60 -76 60 -2
0 -6 -15 -10 -32z"/>
</g>
</svg>
